<svg xmlns="http://www.w3.org/2000/svg" xmlns:xlink="http://www.w3.org/1999/xlink" width="1052" height="1052">
	
	<path fill="#F7F7F5" transform="scale(1.02734 1.02734)" d="M395.682 637.571L319.828 637.45L296.816 637.489C293.427 637.505 289.899 637.879 286.533 637.632C285.046 637.524 283.958 637.18 282.645 636.497L281.892 635.318C282.229 634.226 281.911 634.508 282.85 634.037C285.037 632.938 288.062 633.011 290.474 632.988C334.396 632.569 378.376 633.431 422.306 633.454L678.666 633.559C685.727 633.574 738.522 632.781 741.673 633.968C742.81 634.397 743.727 634.889 744.43 635.913C743.186 637.551 743.205 637.623 741.218 637.927C736.615 638.633 731.538 638.048 726.871 638.007C718.933 637.937 710.988 638.049 703.049 638.048L656.151 637.987C646.785 637.967 637.228 638.293 627.891 637.607C623.449 641.747 618.213 644.983 613.223 648.411Q602.899 655.516 592.654 662.735L511.593 720.291C504.65 714.333 496.83 709.392 489.319 704.199C481.762 698.973 474.346 693.537 466.817 688.269L395.682 637.571Z" data-index="1" style="visibility: visible; opacity: 1;"></path>
	<path fill="#F7F7F5" transform="scale(1.02734 1.02734)" d="M395.682 637.571L319.828 637.45L296.816 637.489C293.427 637.505 289.899 637.879 286.533 637.632C285.046 637.524 283.958 637.18 282.645 636.497L281.892 635.318C282.229 634.226 281.911 634.508 282.85 634.037C285.037 632.938 288.062 633.011 290.474 632.988C334.396 632.569 378.376 633.431 422.306 633.454L678.666 633.559C685.727 633.574 738.522 632.781 741.673 633.968C742.81 634.397 743.727 634.889 744.43 635.913C743.186 637.551 743.205 637.623 741.218 637.927C736.615 638.633 731.538 638.048 726.871 638.007C718.933 637.937 710.988 638.049 703.049 638.048L656.151 637.987C646.785 637.967 637.228 638.293 627.891 637.607C625.384 637.39 622.466 637.044 620.118 638.172C614.095 637.296 607.146 638.001 601.041 638.096C598.659 637.794 594.529 637.12 592.314 638.31C592.176 638.385 592.07 638.509 591.949 638.608C589.219 637.16 579.064 638.02 575.435 638.091C573.507 637.301 570.706 637.117 568.755 637.968C568.338 638.15 568.221 638.298 567.925 638.578C559.998 645.238 551.02 651.028 542.597 657.073C532.352 664.425 522.273 672.144 511.777 679.123C492.319 665.894 472.956 652.061 454.039 638.068C451.657 636.885 448.5 637.522 445.978 637.948C440.92 637.956 435 637.42 430.039 638.125C429.817 637.977 429.623 637.774 429.373 637.68C427.475 636.968 423.737 637.248 421.946 638.151C418.519 636.923 407.662 637.773 403.522 637.778C401.359 636.538 398 636.974 395.682 637.571Z" data-index="2" style="visibility: visible; opacity: 1;"></path>
	<path fill="#BA9858" transform="scale(1.02734 1.02734)" d="M395.682 637.571L319.828 637.45L296.816 637.489C293.427 637.505 289.899 637.879 286.533 637.632C285.046 637.524 283.958 637.18 282.645 636.497L281.892 635.318C282.229 634.226 281.911 634.508 282.85 634.037C285.037 632.938 288.062 633.011 290.474 632.988C334.396 632.569 378.376 633.431 422.306 633.454L678.666 633.559C685.727 633.574 738.522 632.781 741.673 633.968C742.81 634.397 743.727 634.889 744.43 635.913C743.186 637.551 743.205 637.623 741.218 637.927C736.615 638.633 731.538 638.048 726.871 638.007C718.933 637.937 710.988 638.049 703.049 638.048L656.151 637.987C646.785 637.967 637.228 638.293 627.891 637.607C625.384 637.39 622.466 637.044 620.118 638.172C614.095 637.296 607.146 638.001 601.041 638.096C598.659 637.794 594.529 637.12 592.314 638.31C592.176 638.385 592.07 638.509 591.949 638.608C589.219 637.16 579.064 638.02 575.435 638.091C573.507 637.301 570.706 637.117 568.755 637.968C568.338 638.15 568.221 638.298 567.925 638.578C563.766 636.625 556.363 638.433 551.638 637.773C549.037 637.465 545.896 636.86 543.581 638.24Q536.307 638.072 529.032 638.24C527.31 637.333 523.68 636.923 521.878 637.809C521.256 638.115 521.211 638.208 520.764 638.628C518.426 637.435 505.614 638.264 502.317 638.261C501.811 637.808 501.755 637.705 501.067 637.37C499.194 636.458 495.241 636.8 493.465 637.701C488.964 638.541 484.136 637.971 479.564 638.195L478.999 637.639C476.397 637.206 472.967 636.987 470.532 638.115C465.431 637.284 459.241 637.997 454.039 638.068C451.657 636.885 448.5 637.522 445.978 637.948C440.92 637.956 435 637.42 430.039 638.125C429.817 637.977 429.623 637.774 429.373 637.68C427.475 636.968 423.737 637.248 421.946 638.151C418.519 636.923 407.662 637.773 403.522 637.778C401.359 636.538 398 636.974 395.682 637.571Z" data-index="3" style="visibility: visible; opacity: 1;"></path>
	<path fill="#F7F7F5" transform="scale(1.02734 1.02734)" d="M493.465 637.701C495.241 636.8 499.194 636.458 501.067 637.37C501.755 637.705 501.811 637.808 502.317 638.261C505.614 638.264 518.426 637.435 520.764 638.628C521.211 638.208 521.256 638.115 521.878 637.809C523.68 636.923 527.31 637.333 529.032 638.24Q536.306 638.072 543.581 638.24C533.598 646.59 522.593 654.3 511.977 661.849C501.374 655.289 488.815 646.458 479.564 638.195C484.136 637.971 488.964 638.541 493.465 637.701Z" data-index="4" style="visibility: visible; opacity: 1;"></path>
	<path fill="#19283A" transform="scale(1.02734 1.02734)" d="M493.465 637.701C495.241 636.8 499.194 636.458 501.067 637.37C501.755 637.705 501.811 637.808 502.317 638.261C505.614 638.264 518.426 637.435 520.764 638.628C521.211 638.208 521.256 638.115 521.878 637.809C523.68 636.923 527.31 637.333 529.032 638.24C523.943 642.701 517.396 646.718 511.628 650.259C505.517 646.119 499.785 641.552 493.465 637.701Z" data-index="5" style="visibility: visible; opacity: 1;"></path>
	<path fill="#F7F7F5" transform="scale(1.02734 1.02734)" d="M502.317 638.261C505.614 638.264 518.426 637.435 520.764 638.628C517.971 641.038 515 643.105 511.89 645.078C508.618 642.935 505.483 640.559 502.317 638.261Z" data-index="6" style="visibility: visible; opacity: 1;"></path>
	<path fill="#19283A" transform="scale(1.02734 1.02734)" d="M470.532 638.115C472.967 636.987 476.397 637.206 478.999 637.639L479.564 638.195C488.815 646.458 501.374 655.289 511.977 661.849C522.593 654.3 533.598 646.59 543.581 638.24C545.896 636.86 549.037 637.465 551.638 637.773C538.968 648.28 525.324 657.844 511.857 667.295C497.587 658.357 484.881 647.018 470.532 638.115Z" data-index="7" style="visibility: visible; opacity: 1;"></path>
	<path fill="#F7F7F5" transform="scale(1.02734 1.02734)" d="M445.978 637.948C448.5 637.522 451.657 636.885 454.039 638.068C472.956 652.061 492.319 665.894 511.777 679.123C522.273 672.144 532.352 664.425 542.597 657.073C551.02 651.028 559.998 645.238 567.925 638.578C568.221 638.298 568.338 638.15 568.755 637.968C570.706 637.117 573.507 637.301 575.435 638.091C579.064 638.02 589.219 637.16 591.949 638.608C582.471 647.198 568.796 655.55 558.209 663.19C543.54 673.776 527.108 686.939 511.896 696.226C502.259 691.561 493.266 683.542 484.483 677.332C466.291 664.47 447.552 651.896 430.039 638.125C435 637.42 440.92 637.956 445.978 637.948Z" data-index="8" style="visibility: visible; opacity: 1;"></path>
	<path fill="#19283A" transform="scale(1.02734 1.02734)" d="M445.978 637.948C448.5 637.522 451.657 636.885 454.039 638.068C472.956 652.061 492.319 665.894 511.777 679.123C522.273 672.144 532.352 664.425 542.597 657.073C551.02 651.028 559.998 645.238 567.925 638.578C568.221 638.298 568.338 638.15 568.755 637.968C570.706 637.117 573.507 637.301 575.435 638.091C567.75 644.886 558.962 650.681 550.632 656.666L511.88 684.52C503.6 678.189 494.733 672.429 486.203 666.418L445.978 637.948Z" data-index="9" style="visibility: visible; opacity: 1;"></path>
	<path fill="#19283A" transform="scale(1.02734 1.02734)" d="M395.682 637.571C398 636.974 401.359 636.538 403.522 637.778L474.225 688.279C486.319 696.881 498.393 706.506 511.059 714.184C519.601 710.495 535.727 697.813 544.087 691.92C569.46 674.035 594.556 655.792 620.118 638.172C622.466 637.044 625.384 637.39 627.891 637.607C623.449 641.747 618.213 644.983 613.223 648.411Q602.899 655.516 592.654 662.735L511.593 720.291C504.65 714.333 496.83 709.392 489.319 704.199C481.762 698.973 474.346 693.537 466.817 688.269L395.682 637.571Z" data-index="10" style="visibility: visible; opacity: 1;"></path>
	<path fill="#19283A" transform="scale(1.02734 1.02734)" d="M421.946 638.151C423.737 637.248 427.475 636.968 429.373 637.68C429.623 637.774 429.817 637.977 430.039 638.125C447.552 651.896 466.291 664.47 484.483 677.332C493.266 683.542 502.259 691.561 511.896 696.226C527.108 686.939 543.54 673.776 558.209 663.19C568.796 655.55 582.471 647.198 591.949 638.608C592.07 638.509 592.176 638.385 592.314 638.31C594.529 637.12 598.659 637.794 601.041 638.096L546.684 677.023C534.961 685.416 523.324 694.203 511.167 701.959C502.977 694.384 492.854 688.643 483.765 682.175L421.946 638.151Z" data-index="11" style="visibility: visible; opacity: 1;"></path>
	<path fill="#F7F7F5" transform="scale(1.02734 1.02734)" d="M558.076 318.677C565.617 325.42 572.342 333.346 579.265 340.72C590.255 352.425 601.316 364.008 612.119 375.892C612.35 375.927 612.582 375.965 612.814 375.997C619.586 376.939 628.996 376.06 636.13 376.039L705.382 376.004C715.638 376.005 727.353 375.238 737.449 375.951C738.778 376.045 739.947 376.024 741.017 376.899C741.526 378.078 741.544 378.251 741.36 379.523C739.656 380.638 736.51 380.407 734.501 380.413L431.615 379.594L321.155 380.397Q309.711 380.38 298.267 380.516C293.645 380.564 288.334 381.125 283.819 380.273C283.19 380.154 282.693 379.925 282.118 379.656L281.879 378.637L281.623 379.356L280.738 378.426C281.217 377.456 281.041 377.317 282.128 376.902C283.724 376.293 285.519 376.133 287.217 376.041C301.07 375.291 315.31 376.018 329.206 376.015L412.772 376.026C420.987 365.48 430.932 355.701 439.979 345.822C448.122 336.93 455.99 327.234 464.8 319.043C480.976 335.078 496.338 352.106 511.397 369.19C521.633 358.326 531.548 347.137 541.608 336.11C546.963 330.239 552.232 324.059 558.076 318.677Z" data-index="12" style="visibility: visible; opacity: 1;"></path>
	<path fill="#F7F7F5" transform="scale(1.02734 1.02734)" d="M465.002 325.256C471.443 330.985 506.615 368.757 509.805 374.466C505.886 374.437 500.84 373.814 497.058 374.735C495.86 375.782 494.844 376.371 493.383 376.993C492.609 375.926 491.839 374.883 490.978 373.882C487.736 375.181 482.45 374.394 478.851 374.496L478.726 376.418C477.836 377.136 477.088 377.1 475.981 377.186L473.006 374.38C468.426 374.517 460.571 375.545 456.465 373.904C454.453 375.976 452.917 376.179 450.104 376.475L449.952 374.569C446.102 374.582 442.27 374.578 438.424 374.39C437.608 375.091 436.342 375.896 435.897 376.868C434.449 376.971 433.036 377.275 431.738 376.489L431.582 375.017C428.032 374.012 422.404 374.826 418.601 374.91C423.31 370.675 427.643 365.676 431.928 361.011C442.847 349.126 453.411 336.465 465.002 325.256Z" data-index="13" style="visibility: visible; opacity: 1;"></path>
	<path fill="#F7F7F5" transform="scale(1.02734 1.02734)" d="M464.355 346C473.729 354.497 482.29 364.644 490.978 373.882C487.736 375.181 482.45 374.394 478.851 374.496L478.726 376.418C477.836 377.136 477.088 377.1 475.981 377.186L473.006 374.38C468.426 374.517 460.571 375.545 456.465 373.904C454.453 375.976 452.917 376.179 450.104 376.475L449.952 374.569C446.102 374.582 442.27 374.578 438.424 374.39L464.355 346Z" data-index="14" style="opacity: 1; visibility: visible;"></path>
	<path fill="#19283A" transform="scale(1.02734 1.02734)" d="M464.787 359.52C469.272 364.52 473.723 370.151 478.851 374.496L478.726 376.418C477.836 377.136 477.088 377.1 475.981 377.186L473.006 374.38C468.426 374.517 460.571 375.545 456.465 373.904C454.453 375.976 452.917 376.179 450.104 376.475L449.952 374.569C454.927 369.59 459.671 364.351 464.787 359.52Z" data-index="15" style="visibility: visible; opacity: 1;"></path>
	<path fill="#F7F7F5" transform="scale(1.02734 1.02734)" d="M464.491 365.229C467.52 368.145 470.287 371.174 473.006 374.38C468.426 374.517 460.571 375.545 456.465 373.904C459.068 370.928 461.66 367.991 464.491 365.229Z" data-index="16" style="opacity: 1; visibility: visible;"></path>
	<path fill="#19283A" transform="scale(1.02734 1.02734)" d="M464.742 339.765C469.779 345.58 475.194 351.14 480.366 356.846C485.82 362.862 491.127 369.18 497.058 374.735C495.86 375.782 494.844 376.371 493.383 376.993C492.609 375.926 491.839 374.883 490.978 373.882C482.29 364.644 473.729 354.497 464.355 346L438.424 374.39C437.608 375.091 436.342 375.896 435.897 376.868C434.449 376.971 433.036 377.275 431.738 376.489L431.582 375.017C436.205 371.357 440.216 366.275 444.224 361.925L464.742 339.765Z" data-index="17" style="visibility: visible; opacity: 1;"></path>
	<path fill="#BA9858" transform="scale(1.02734 1.02734)" d="M450.104 376.475C452.917 376.179 454.453 375.976 456.465 373.904C460.571 375.545 468.426 374.517 473.006 374.38L475.981 377.186C477.088 377.1 477.836 377.136 478.726 376.418L478.851 374.496C482.45 374.394 487.736 375.181 490.978 373.882C491.839 374.883 492.609 375.926 493.383 376.993C494.844 376.371 495.86 375.782 497.058 374.735C500.84 373.814 505.886 374.437 509.805 374.466C511.31 375.077 511.58 374.77 513.083 374.291C517.439 374.325 521.876 374.176 526.22 374.417L527.113 376.664C529.407 376.428 530.491 375.286 532.211 373.828C535.291 375.174 540.92 373.914 544.412 374.277L546.892 375.85C548.198 375.597 549.329 374.981 550.517 374.408C556.629 374.409 562.818 374.616 568.92 374.366C570.083 375.193 571.021 375.74 572.518 375.629C573.579 375.55 573.938 375.278 574.634 374.537L575.176 374.598L586.833 374.544C588.284 375.631 589.513 376.544 591.447 376.247C592.216 376.129 592.415 375.828 592.99 375.359L594.4 375.545C598.17 375.213 602.091 375.395 605.882 375.366L607.867 377.271C609.4 376.95 610.685 376.522 612.119 375.892C612.35 375.927 612.582 375.965 612.814 375.997C619.586 376.939 628.996 376.06 636.13 376.039L705.382 376.004C715.638 376.005 727.353 375.238 737.449 375.951C738.778 376.045 739.947 376.024 741.017 376.899C741.526 378.078 741.544 378.251 741.36 379.523C739.656 380.638 736.51 380.407 734.501 380.413L431.615 379.594L321.155 380.397Q309.711 380.38 298.267 380.516C293.645 380.564 288.334 381.125 283.819 380.273C283.19 380.154 282.693 379.925 282.118 379.656L281.879 378.637L281.623 379.356L280.738 378.426C281.217 377.456 281.041 377.317 282.128 376.902C283.724 376.293 285.519 376.133 287.217 376.041C301.07 375.291 315.31 376.018 329.206 376.015L412.772 376.026L413.376 377.365L418.601 374.91C422.404 374.826 428.032 374.012 431.582 375.017L431.738 376.489C433.036 377.275 434.449 376.971 435.897 376.868C436.342 375.896 437.608 375.091 438.424 374.39C442.27 374.578 446.102 374.582 449.952 374.569L450.104 376.475Z" data-index="18" style="visibility: visible; opacity: 1;"></path>
	<path fill="#55554F" transform="scale(1.02734 1.02734)" d="M527.113 376.664C529.407 376.428 530.491 375.286 532.211 373.828C535.291 375.174 540.92 373.914 544.412 374.277L546.892 375.85C548.198 375.597 549.329 374.981 550.517 374.408C556.629 374.409 562.818 374.616 568.92 374.366C570.083 375.193 571.021 375.74 572.518 375.629C573.579 375.55 573.938 375.278 574.634 374.537L575.176 374.598C575.03 375.743 574.921 376.871 574.568 377.975C562.352 377.538 550.051 378.526 537.858 377.573C534.464 377.599 531.101 377.683 527.728 377.234L527.113 376.664Z" data-index="19" style="visibility: visible; opacity: 1;"></path>
	<path fill="#5F5B47" transform="scale(1.02734 1.02734)" d="M490.978 373.882C491.839 374.883 492.609 375.926 493.383 376.993C494.844 376.371 495.86 375.782 497.058 374.735C500.84 373.814 505.886 374.437 509.805 374.466C511.31 375.077 511.58 374.77 513.083 374.291C517.439 374.325 521.876 374.176 526.22 374.417L527.113 376.664L527.728 377.234C519.965 378.406 501.448 377.852 492.863 377.438Q484.399 377.547 475.934 377.547L475.981 377.186C477.088 377.1 477.836 377.136 478.726 376.418L478.851 374.496C482.45 374.394 487.736 375.181 490.978 373.882Z" data-index="20" style="visibility: visible; opacity: 1;"></path>
	<path fill="#706243" transform="scale(1.02734 1.02734)" d="M435.897 376.868C436.342 375.896 437.608 375.091 438.424 374.39C442.27 374.578 446.102 374.582 449.952 374.569L450.104 376.475L451.668 377.534Q443.863 377.902 436.068 377.358C428.595 377.716 420.833 377.993 413.376 377.365L418.601 374.91C422.404 374.826 428.032 374.012 431.582 375.017L431.738 376.489C433.036 377.275 434.449 376.971 435.897 376.868Z" data-index="21" style="visibility: visible; opacity: 1;"></path>
	<path fill="#5F5B47" transform="scale(1.02734 1.02734)" d="M450.104 376.475C452.917 376.179 454.453 375.976 456.465 373.904C460.571 375.545 468.426 374.517 473.006 374.38L475.981 377.186L475.934 377.547C468.055 378.339 459.574 377.994 451.668 377.534L450.104 376.475Z" data-index="22" style="visibility: visible; opacity: 1;"></path>
	<path fill="#5F5B47" transform="scale(1.02734 1.02734)" d="M586.833 374.544C588.284 375.631 589.513 376.544 591.447 376.247C592.216 376.129 592.415 375.828 592.99 375.359L594.4 375.545L593.912 377.612Q584.241 377.878 574.568 377.975C574.921 376.871 575.03 375.743 575.176 374.598L586.833 374.544Z" data-index="23" style="visibility: visible;"></path>
	<path fill="#706243" transform="scale(1.02734 1.02734)" d="M605.882 375.366L607.867 377.271C603.331 378.048 598.485 378.123 593.912 377.612L594.4 375.545C598.17 375.213 602.091 375.395 605.882 375.366Z" data-index="24" style="visibility: visible;"></path>
	<path fill="#19283A" transform="scale(1.02734 1.02734)" d="M558.076 318.677C565.617 325.42 572.342 333.346 579.265 340.72C590.255 352.425 601.316 364.008 612.119 375.892C610.685 376.522 609.4 376.95 607.867 377.271L605.882 375.366C597.618 365.601 588.401 356.521 579.614 347.228C572.453 339.655 565.628 331.634 558.078 324.45C549.55 332.965 541.614 342.355 533.5 351.278C526.698 358.758 519.144 366.211 513.083 374.291C511.58 374.77 511.31 375.077 509.805 374.466C506.615 368.757 471.443 330.985 465.002 325.256C453.411 336.465 442.847 349.126 431.928 361.011C427.643 365.676 423.31 370.675 418.601 374.91L413.376 377.365L412.772 376.026C420.987 365.48 430.932 355.701 439.979 345.822C448.122 336.93 455.99 327.234 464.8 319.043C480.976 335.078 496.338 352.106 511.397 369.19C521.633 358.326 531.548 347.137 541.608 336.11C546.963 330.239 552.232 324.059 558.076 318.677Z" data-index="25" style="visibility: visible; opacity: 1;"></path>
	<path fill="#F7F7F5" transform="scale(1.02734 1.02734)" d="M532.211 373.828L558.936 345.344C568.461 354.528 578.474 364.271 586.833 374.544L575.176 374.598L574.634 374.537C573.938 375.278 573.579 375.55 572.518 375.629C571.021 375.74 570.083 375.193 568.92 374.366C562.818 374.616 556.629 374.409 550.517 374.408C549.329 374.981 548.198 375.597 546.892 375.85L544.412 374.277C540.92 373.914 535.291 375.174 532.211 373.828Z" data-index="26" style="opacity: 1; visibility: visible;"></path>
	<path fill="#19283A" transform="scale(1.02734 1.02734)" d="M559.097 358.592Q566.785 366.642 574.634 374.537C573.938 375.278 573.579 375.55 572.518 375.629C571.021 375.74 570.083 375.193 568.92 374.366C562.818 374.616 556.629 374.409 550.517 374.408C549.329 374.981 548.198 375.597 546.892 375.85L544.412 374.277C549.655 369.364 554 363.632 559.097 358.592Z" data-index="27" style="visibility: visible; opacity: 1;"></path>
	<path fill="#F7F7F5" transform="scale(1.02734 1.02734)" d="M559.119 364.703C562.614 367.709 565.999 370.784 568.92 374.366C562.818 374.616 556.629 374.409 550.517 374.408C553.29 371.132 555.98 367.635 559.119 364.703Z" data-index="28" style="opacity: 1; visibility: visible;"></path>
	<path fill="#19283A" transform="scale(1.02734 1.02734)" d="M526.22 374.417C537.28 362.833 547.765 350.692 558.927 339.207C570.659 350.932 581.348 363.615 592.99 375.359C592.415 375.828 592.216 376.129 591.447 376.247C589.513 376.544 588.284 375.631 586.833 374.544C578.474 364.271 568.461 354.528 558.936 345.344L532.211 373.828C530.491 375.286 529.407 376.428 527.113 376.664L526.22 374.417Z" data-index="29" style="visibility: visible; opacity: 1;"></path>
	<path fill="#19283A" transform="scale(1.02734 1.02734)" d="M394.104 426.339Q395.079 426.216 396.06 426.141Q397.04 426.065 398.023 426.039Q399.006 426.012 399.989 426.033Q400.972 426.055 401.953 426.125Q402.933 426.194 403.909 426.312Q404.885 426.43 405.855 426.596Q406.824 426.762 407.784 426.975Q408.743 427.188 409.692 427.448Q410.64 427.708 411.574 428.015Q412.508 428.321 413.426 428.673Q414.344 429.025 415.244 429.422Q416.144 429.819 417.023 430.259Q417.902 430.699 418.758 431.182Q419.614 431.666 420.446 432.19Q421.277 432.715 422.082 433.28Q422.887 433.845 423.663 434.448Q424.439 435.052 425.184 435.693Q425.93 436.334 426.643 437.011Q427.356 437.688 428.035 438.4Q428.713 439.111 429.356 439.855Q430 440.599 430.605 441.373Q431.211 442.148 431.778 442.951Q432.345 443.754 432.871 444.584Q433.398 445.415 433.883 446.27Q434.369 447.125 434.811 448.003Q435.254 448.881 435.653 449.779Q436.052 450.678 436.406 451.595Q436.76 452.512 437.069 453.446Q437.378 454.379 437.641 455.327Q437.903 456.274 438.119 457.234Q438.334 458.193 438.502 459.161Q438.671 460.13 438.791 461.106Q438.911 462.082 438.984 463.062Q439.056 464.043 439.08 465.026Q439.104 466.009 439.08 466.992Q439.055 467.975 438.982 468.955Q438.91 469.936 438.789 470.911Q438.668 471.887 438.5 472.856Q438.331 473.824 438.115 474.784Q437.899 475.743 437.636 476.69Q437.373 477.638 437.064 478.571Q436.755 479.504 436.4 480.421Q436.046 481.338 435.646 482.237Q435.247 483.135 434.804 484.013Q434.361 484.891 433.875 485.746Q433.39 486.601 432.863 487.431Q432.336 488.261 431.768 489.064Q431.201 489.867 430.595 490.641Q429.989 491.415 429.346 492.159Q428.702 492.902 428.023 493.613Q427.344 494.324 426.631 495.001Q425.918 495.678 425.172 496.319Q424.426 496.96 423.65 497.563Q422.874 498.166 422.069 498.731Q421.264 499.296 420.432 499.82Q419.6 500.344 418.744 500.827Q417.887 501.31 417.008 501.75Q416.129 502.19 415.229 502.586Q414.329 502.982 413.411 503.334Q412.493 503.686 411.558 503.992Q410.624 504.298 409.676 504.557Q408.727 504.817 407.768 505.03Q406.808 505.243 405.838 505.408Q404.869 505.573 403.893 505.691Q402.92 505.808 401.943 505.877Q400.966 505.947 399.987 505.968Q399.008 505.989 398.029 505.963Q397.049 505.936 396.073 505.861Q395.096 505.787 394.124 505.664Q393.152 505.542 392.188 505.372Q391.223 505.203 390.268 504.986Q389.312 504.769 388.369 504.506Q387.425 504.242 386.496 503.933Q385.567 503.624 384.653 503.27Q383.74 502.915 382.845 502.517Q381.951 502.118 381.077 501.676Q380.203 501.234 379.351 500.75Q378.5 500.265 377.673 499.74Q376.846 499.215 376.046 498.649Q375.246 498.084 374.475 497.48Q373.704 496.877 372.963 496.236Q372.222 495.595 371.513 494.919Q370.805 494.242 370.13 493.532Q369.456 492.822 368.817 492.079Q368.178 491.337 367.576 490.564Q366.974 489.791 366.411 488.99Q365.847 488.189 365.324 487.361Q364.801 486.533 364.319 485.68Q363.836 484.827 363.396 483.952Q362.957 483.077 362.56 482.181Q362.164 481.286 361.812 480.371Q361.459 479.457 361.153 478.527Q360.846 477.597 360.585 476.653Q360.324 475.709 360.109 474.753Q359.895 473.797 359.727 472.832Q359.56 471.867 359.44 470.895Q359.32 469.923 359.248 468.946Q359.176 467.969 359.151 466.99Q359.127 466.011 359.151 465.031Q359.175 464.052 359.246 463.075Q359.318 462.098 359.437 461.126Q359.557 460.154 359.724 459.189Q359.891 458.224 360.105 457.268Q360.319 456.312 360.579 455.368Q360.84 454.423 361.146 453.493Q361.453 452.563 361.804 451.648Q362.156 450.734 362.552 449.838Q362.948 448.942 363.387 448.067Q363.827 447.191 364.308 446.339Q364.79 445.486 365.313 444.657Q365.836 443.829 366.399 443.028Q366.962 442.226 367.563 441.453Q368.165 440.68 368.803 439.937Q369.442 439.194 370.116 438.484Q370.791 437.773 371.499 437.096Q372.207 436.42 372.947 435.779Q373.688 435.137 374.459 434.533Q375.23 433.929 376.03 433.363Q376.829 432.798 377.656 432.272Q378.482 431.746 379.333 431.261Q380.185 430.777 381.059 430.334Q381.932 429.892 382.827 429.493Q383.721 429.094 384.634 428.739Q385.547 428.384 386.477 428.074Q387.406 427.764 388.349 427.501Q389.293 427.237 390.248 427.02Q391.203 426.802 392.168 426.632Q393.132 426.462 394.104 426.339Z" data-index="30" style="visibility: visible; opacity: 1;"></path>
	<path fill="#F7F7F5" transform="scale(1.02734 1.02734)" d="M396.066 432.696C401.749 433.052 406.48 434.107 411.323 437.351C419.001 442.496 423.765 451.496 425.344 460.431C427.064 470.167 426.056 482.618 420.04 490.828C416.055 496.267 410.89 498.504 404.447 499.564C397.627 499.698 391.641 498.109 386.247 493.775C378.588 487.623 374.589 477.991 373.431 468.435C372.33 459.354 373.094 448.146 379.057 440.762C383.523 435.231 389.248 433.334 396.066 432.696Z" data-index="31" style="visibility: visible; opacity: 1;"></path>
	<path fill="#19283A" transform="scale(1.02734 1.02734)" d="M629.889 428.705C634.973 428.353 640.081 428.924 645.221 428.518C654.267 438.64 672.56 470.768 677.819 483.538C683.029 472.535 700.399 436.402 707.602 429.012C714.209 428.889 721.187 428.496 727.717 429.553C724.57 430.427 721.089 430.505 718.089 431.85C716.927 432.37 715.942 432.945 715.574 434.233C714.974 436.331 717.079 491.642 717.58 496.941C717.69 498.098 717.989 499.402 718.713 500.348C720.434 502.596 722.98 502.535 725.544 502.741L725.95 503.321C722.598 504.898 700.12 503.938 695.129 503.932C696.981 503.172 700.276 502.629 701.546 500.992C704.659 496.979 702.761 475.662 702.533 470.401Q702.41 459.52 701.943 448.648C692.911 466.814 685.503 485.792 676.462 503.948L676.113 503.452C676.19 504.609 676.384 504.173 675.819 504.855C674.392 504.431 673.954 503.981 673.089 502.767C668.748 496.672 665.57 489.045 662.099 482.414Q653.56 466.125 644.548 450.093C644.515 466.5 642.409 484.943 643.182 500.91C645.807 502.072 648.692 502.779 651.437 503.616C650.598 503.709 649.776 503.793 648.933 503.837C645.46 504.021 627.82 504.701 626.003 503.09L626.549 502.543C627.877 502.473 629.616 502.531 630.853 502.008C632.934 501.128 634.012 499.493 634.681 497.397C636.511 491.669 639.648 438.461 638.385 435.128C636.717 430.726 631.28 431.554 629.889 428.705Z" data-index="32" style="visibility: visible; opacity: 1;"></path>
	<path fill="#19283A" transform="scale(1.02734 1.02734)" d="M487.633 428.742C492.579 428.621 497.858 428.506 502.739 429.368C508.098 430.315 513.702 432.677 516.778 437.395C519.471 441.526 519.78 446.896 518.748 451.608C517.107 459.104 512.473 464.235 506.287 468.346C508.009 471.952 510.241 475.261 512.5 478.547C517.429 485.717 524.023 497.102 532.03 501.099C534.215 502.19 537.623 502.427 540.044 502.875L540.259 503.446C536.928 504.855 523.684 504.371 519.99 503.335C509.533 500.403 503.914 487.672 498.946 479.013C497.682 476.778 496.222 474.673 494.789 472.545L483.318 471.738C483.159 477.908 481.821 494.809 485.562 499.304C486.945 500.966 489.119 501.308 491.15 501.557C493.208 501.809 495.198 502.19 497.227 502.607C489.263 504.316 480.418 503.275 472.332 503.118C468.737 503.048 465.045 503.406 461.48 503.007L461.152 502.313C462.894 500.834 465.688 501.893 467.509 500.492C469.148 499.231 469.874 496.686 470.246 494.753C471.985 485.713 470.768 465.129 470.719 455.046C470.692 449.393 471.349 443.112 470.643 437.552C470.46 436.117 469.981 434.668 469.111 433.499C467.893 431.862 465.888 430.693 463.861 430.514C462.905 430.43 462.168 430.297 461.245 429.984L461.309 429.27C468.335 427.927 480.079 428.782 487.633 428.742Z" data-index="33" style="visibility: visible; opacity: 1;"></path>
	<path fill="#F7F7F5" transform="scale(1.02734 1.02734)" d="M483.082 433.081C488.283 432.955 493.547 432.766 498.139 435.669C501.634 437.878 503.812 441.509 504.716 445.492Q504.86 446.103 504.974 446.721Q505.088 447.338 505.172 447.961Q505.255 448.583 505.308 449.209Q505.361 449.835 505.382 450.463Q505.404 451.09 505.395 451.718Q505.386 452.346 505.346 452.973Q505.306 453.6 505.236 454.224Q505.165 454.848 505.064 455.468Q504.962 456.087 504.831 456.701Q504.699 457.315 504.537 457.922Q504.375 458.529 504.184 459.127Q503.992 459.725 503.772 460.313Q503.551 460.901 503.302 461.478Q503.053 462.054 502.775 462.618Q502.498 463.181 502.193 463.73Q501.888 464.28 501.557 464.813C500.973 465.344 500.393 465.875 499.731 466.31C495.337 469.193 488.279 467.976 483.445 466.986C482.888 455.732 483.066 444.351 483.082 433.081Z" data-index="34" style="visibility: visible; opacity: 1;"></path>
	<path fill="#BA9858" transform="scale(1.02734 1.02734)" d="M257.411 400.604C285.038 400.146 312.729 400.566 340.364 400.572L487.361 400.522L761.56 400.478C762.58 400.486 763.409 400.427 764.34 400.922C764.989 401.266 764.999 401.819 765.232 402.459C764.963 403.93 764.692 404.429 763.624 405.476C747.307 404.63 730.792 405.073 714.446 405.04L627.21 405.017L377.576 405.003L293.782 405.015C285.337 405.03 264.985 406.06 258.226 404.759C256.991 404.521 256.544 404.283 255.897 403.229C256.216 401.817 256.392 401.653 257.411 400.604Z" data-index="35" style="visibility: visible; opacity: 1;"></path>
	<path fill="#BA9858" transform="scale(1.02734 1.02734)" d="M257.191 609.089C277.949 608.589 298.779 608.921 319.547 608.892L437.386 608.988L638.794 608.914L729.746 608.944C736.507 608.927 760.187 608.022 765.022 609.015C766.306 609.279 766.813 609.639 767.575 610.666C767.342 612.171 767.044 612.323 765.987 613.456Q705.963 613.005 645.936 613.189L385.468 612.997L296.21 612.986C284.227 613.007 272.112 613.769 260.155 613.415C258.832 613.376 257.974 613.394 256.885 612.536C256.483 611.036 256.764 610.551 257.191 609.089Z" data-index="36" style="visibility: visible; opacity: 1;"></path>
	<path fill="#19283A" transform="scale(1.02734 1.02734)" d="M601.9 426.491C601.924 426.68 601.961 426.868 601.971 427.058C602.159 430.456 600.535 441.915 598.442 444.384C596.974 443.455 597.512 439.291 595.641 437.398C591.235 432.94 580.479 433.811 574.531 433.729C573 443.015 573.67 453.146 573.97 462.529C578.95 462.651 590.986 464.329 594.793 461.227C595.572 460.592 596.371 459.985 597.165 459.369L598.615 460.011L598.022 459.405C598.522 460.515 597.428 474.052 597.215 476.308L596.68 476.406C595.077 474.152 593.986 471.09 592.081 469.148C589.19 466.201 577.847 467.333 573.746 467.351C573.692 473.571 572.119 489.973 575.216 494.931C576.687 497.284 579.126 498.495 581.792 498.978C587.461 500.005 594.919 499.178 599.644 495.832C602.055 492.397 602.821 488.15 604.518 484.335C604.79 489.835 604.602 499.13 601.012 503.551C596.838 505.19 558.923 503.949 551.511 503.833C553.014 503.195 554.222 502.982 555.781 502.624C557.556 502.217 559.092 501.517 559.984 499.829C561.851 496.296 561.871 439.717 560.062 434.775C559.003 431.881 554.008 431.442 551.366 430.271L551.243 429.348C557.885 426.049 589.841 432.098 601.276 426.788L601.9 426.491Z" data-index="37" style="visibility: visible; opacity: 1;"></path>
	<path fill="#BA9858" transform="scale(1.02734 1.02734)" d="M764.092 533.555C771.532 533.142 778.375 534.522 784.052 539.664C789.19 544.318 791.996 551.398 792.14 558.275Q792.148 558.981 792.12 559.686Q792.093 560.391 792.029 561.094Q791.966 561.797 791.868 562.496Q791.77 563.195 791.636 563.888Q791.503 564.581 791.335 565.266Q791.167 565.952 790.965 566.628Q790.763 567.304 790.527 567.969Q790.291 568.635 790.022 569.287Q789.753 569.939 789.452 570.578Q789.15 571.216 788.817 571.838Q788.484 572.46 788.12 573.065Q787.756 573.669 787.362 574.255Q786.969 574.841 786.546 575.406Q786.123 575.971 785.672 576.514Q785.222 577.057 784.744 577.577Q784.267 578.097 783.764 578.592Q783.28 579.076 782.772 579.534Q782.264 579.993 781.734 580.425Q781.203 580.858 780.652 581.263Q780.1 581.668 779.529 582.045Q778.958 582.422 778.368 582.77Q777.779 583.118 777.173 583.435Q776.567 583.753 775.945 584.04Q775.324 584.327 774.689 584.582Q774.054 584.837 773.407 585.06Q772.76 585.283 772.103 585.473Q771.445 585.663 770.779 585.82Q770.113 585.977 769.44 586.1Q768.767 586.223 768.088 586.312Q767.41 586.401 766.727 586.455Q766.045 586.51 765.361 586.531Q764.677 586.551 763.993 586.537C742.504 585.916 738.539 566.736 726.221 554.339C719.578 547.653 710.862 543.111 701.274 543.155C695.001 543.183 688.95 545.203 684.545 549.822C680.445 554.121 678.583 559.819 678.905 565.709C679.218 571.407 681.613 577.01 686.026 580.729C689.552 583.699 694.577 584.853 699.098 584.265Q699.967 584.145 700.819 583.938Q701.672 583.731 702.499 583.438Q703.326 583.146 704.119 582.771Q704.912 582.396 705.663 581.943Q706.414 581.49 707.115 580.962Q707.816 580.436 708.46 579.84Q709.105 579.245 709.685 578.587Q710.266 577.93 710.777 577.217C712.823 574.322 713.53 571.016 712.805 567.542C711.56 561.57 706.196 558.972 701.532 555.943L701.533 555.454C703.964 555.384 706.33 555.637 708.567 556.662C712.139 558.299 714.795 561.624 716.013 565.316C717.478 569.755 717.114 574.86 714.839 578.967C712.263 583.615 707.437 586.827 702.373 588.174C695.676 589.955 689.693 588.275 683.882 584.914C682.505 583.764 681.158 582.602 679.986 581.238C675.399 575.902 673.706 568.889 674.431 561.974Q674.501 561.303 674.604 560.637Q674.708 559.971 674.845 559.311Q674.982 558.651 675.153 557.998Q675.323 557.346 675.527 556.703Q675.73 556.06 675.966 555.429Q676.202 554.797 676.469 554.178Q676.737 553.559 677.035 552.955Q677.334 552.35 677.663 551.762Q677.992 551.173 678.35 550.602Q678.708 550.031 679.095 549.479Q679.482 548.927 679.896 548.395Q680.311 547.863 680.752 547.353Q681.192 546.842 681.659 546.355Q682.125 545.868 682.615 545.405Q683.105 544.943 683.618 544.505Q684.131 544.068 684.666 543.657C690.894 538.858 699.113 537.822 706.784 538.827C718.355 540.344 728.525 547.711 735.116 557.124C738.285 561.648 740.797 566.66 744.162 571.041C748.647 576.879 754.571 581.11 762.081 581.902Q762.668 581.966 763.258 582Q763.848 582.034 764.439 582.037Q765.03 582.041 765.62 582.015Q766.21 581.989 766.798 581.932Q767.386 581.876 767.971 581.79Q768.555 581.704 769.134 581.588Q769.714 581.472 770.287 581.327Q770.859 581.181 771.424 581.007Q771.988 580.833 772.543 580.63Q773.098 580.427 773.642 580.196Q774.186 579.966 774.717 579.707Q775.249 579.449 775.766 579.164Q776.284 578.879 776.786 578.568Q777.288 578.257 777.774 577.921Q778.26 577.585 778.728 577.224Q779.196 576.864 779.645 576.48Q780.097 576.097 780.529 575.691Q780.961 575.285 781.371 574.857Q781.781 574.43 782.17 573.982Q782.558 573.534 782.922 573.067Q783.287 572.599 783.627 572.114Q783.968 571.629 784.283 571.127Q784.598 570.625 784.887 570.108Q785.176 569.59 785.438 569.059Q785.7 568.527 785.935 567.983Q786.169 567.438 786.376 566.883Q786.582 566.327 786.76 565.762Q786.938 565.197 787.087 564.623Q787.235 564.049 787.355 563.469Q787.474 562.888 787.563 562.302Q787.652 561.716 787.712 561.127Q787.771 560.537 787.8 559.945C788.065 554.484 785.909 548.217 782.099 544.239C778.318 540.291 772.884 538.286 767.477 538.205C762.725 538.133 758.055 539.727 754.745 543.223C751.98 546.144 750.721 550 750.864 553.995C751.001 557.819 752.459 561.721 755.417 564.253C762.844 570.613 767.067 562.43 773.766 561.841C774.559 562.685 774.296 562.891 774.283 564C772.796 567.062 769.941 569.038 766.774 570.179C763.024 571.53 758.995 571.205 755.432 569.451Q755.037 569.256 754.653 569.041Q754.269 568.826 753.896 568.591Q753.524 568.356 753.164 568.102Q752.804 567.848 752.458 567.576Q752.112 567.303 751.78 567.013Q751.449 566.724 751.133 566.417Q750.817 566.11 750.518 565.787Q750.218 565.464 749.936 565.126Q749.653 564.788 749.389 564.436Q749.125 564.084 748.879 563.718Q748.633 563.353 748.407 562.975Q748.18 562.597 747.974 562.208Q747.768 561.819 747.582 561.42Q747.396 561.021 747.231 560.612Q747.066 560.204 746.923 559.788Q746.78 559.371 746.658 558.948C745.207 553.933 745.901 548.258 748.623 543.793C752.278 537.797 757.563 535.261 764.092 533.555Z" data-index="38" style="visibility: visible; opacity: 1;"></path>
	<path fill="#BA9858" transform="scale(1.02734 1.02734)" d="M254.187 535.142Q256.068 534.997 257.949 535.151Q259.83 535.305 261.663 535.753C267.612 537.238 273.141 541.211 276.156 546.581Q276.404 547.013 276.628 547.458Q276.853 547.902 277.054 548.358Q277.256 548.814 277.433 549.279Q277.61 549.745 277.763 550.219Q277.916 550.693 278.044 551.174Q278.172 551.656 278.275 552.143Q278.378 552.63 278.455 553.122Q278.533 553.615 278.584 554.11Q278.636 554.605 278.662 555.103Q278.688 555.6 278.688 556.098Q278.688 556.597 278.662 557.094Q278.636 557.591 278.584 558.087Q278.532 558.582 278.455 559.074Q278.377 559.566 278.274 560.054Q278.171 560.541 278.043 561.023Q277.915 561.504 277.762 561.978Q277.487 562.82 277.128 563.63Q276.77 564.44 276.332 565.209Q275.893 565.979 275.38 566.701Q274.866 567.423 274.283 568.089Q273.699 568.755 273.052 569.359Q272.404 569.963 271.699 570.499Q270.993 571.035 270.238 571.497Q269.482 571.959 268.684 572.343C265.366 573.931 261.282 574.352 257.826 572.938C254.579 571.609 251.544 568.476 250.313 565.181C249.645 563.397 249.708 561.208 250.436 559.468C252.336 558.934 254.338 566.279 257.007 567.628C259.793 569.035 263.574 569.503 266.512 568.322C269.691 567.044 271.901 564.26 273.11 561.124C274.57 557.336 274.482 553.201 272.739 549.521Q272.543 549.117 272.327 548.724Q272.111 548.331 271.874 547.95Q271.638 547.569 271.382 547.2Q271.126 546.832 270.851 546.477Q270.576 546.123 270.283 545.783Q269.99 545.443 269.68 545.119Q269.37 544.795 269.043 544.487Q268.716 544.18 268.374 543.89Q268.032 543.599 267.675 543.327Q267.318 543.056 266.948 542.803Q266.577 542.55 266.194 542.316Q265.811 542.083 265.416 541.87Q265.021 541.657 264.616 541.464Q264.21 541.272 263.795 541.101Q263.381 540.93 262.957 540.781Q262.534 540.632 262.104 540.505C256.645 538.849 250.219 539.696 245.25 542.446C240.438 545.108 237.21 549.616 235.863 554.915C234.419 560.593 235.379 566.386 238.457 571.355Q238.776 571.868 239.121 572.364Q239.466 572.86 239.835 573.338Q240.204 573.816 240.597 574.275Q240.99 574.734 241.405 575.172Q241.82 575.611 242.257 576.028Q242.693 576.446 243.15 576.841Q243.607 577.236 244.084 577.607Q244.56 577.979 245.054 578.326Q245.548 578.673 246.059 578.995Q246.57 579.317 247.097 579.613Q247.623 579.909 248.164 580.178Q248.705 580.448 249.258 580.689Q249.812 580.931 250.377 581.145Q250.942 581.359 251.517 581.544Q252.091 581.729 252.675 581.885Q253.258 582.041 253.849 582.168C272.583 586.183 283.842 566.395 294.54 554.844Q297.834 551.303 301.578 548.243Q305.322 545.182 309.447 542.658C315.789 538.766 323.065 536.642 330.467 538.619C336.853 540.324 342.408 544.967 345.56 550.734C349.592 558.11 349.78 566.822 347.335 574.715Q346.851 575.781 346.315 576.821C343.516 582.189 339.107 586.414 333.235 588.184C327.808 589.82 321.578 589.513 316.595 586.682C312.871 584.566 309.883 581.133 308.85 576.918C308.044 573.631 308.515 570.251 310.442 567.438C312.126 564.98 314.753 562.735 317.751 562.202C320.495 561.714 323.786 562.629 325.951 564.372C327.545 565.655 327.658 567.246 327.816 569.121C326.62 569.264 323.503 564.853 319.928 565.009C317.738 565.104 315.273 566.088 313.859 567.81C312.569 569.381 312.234 571.43 312.47 573.404C312.881 576.841 314.907 579.827 317.664 581.853Q318.268 582.29 318.911 582.666Q319.554 583.042 320.231 583.353Q320.908 583.664 321.612 583.908Q322.316 584.152 323.041 584.326Q323.765 584.5 324.503 584.603Q325.241 584.705 325.986 584.735Q326.73 584.765 327.474 584.723Q328.218 584.68 328.954 584.565C333.922 583.825 338.569 580.572 341.353 576.445C344.603 571.628 345.436 565.421 344.199 559.8C342.873 553.779 339.127 548.107 333.767 544.953C313.168 532.832 294.769 562.949 282.45 574.674C277.012 579.849 270.312 584.688 262.856 586.321C255.728 587.881 248.519 586.143 242.53 582.12C236.531 578.09 232.429 571.965 231.185 564.825Q231.079 564.203 231.004 563.576Q230.929 562.949 230.884 562.319Q230.84 561.689 230.827 561.058Q230.814 560.427 230.831 559.795Q230.849 559.164 230.898 558.535Q230.947 557.905 231.026 557.279Q231.106 556.652 231.216 556.031Q231.327 555.409 231.468 554.793Q231.608 554.178 231.779 553.57Q231.95 552.962 232.151 552.364Q232.351 551.765 232.581 551.177Q232.811 550.589 233.069 550.013Q233.328 549.436 233.614 548.874Q233.901 548.311 234.215 547.763Q234.528 547.215 234.869 546.683Q235.209 546.151 235.575 545.637C240.054 539.423 246.798 536.194 254.187 535.142Z" data-index="39" style="visibility: visible; opacity: 1;"></path>
	<path fill="#19283A" transform="scale(1.02734 1.02734)" d="M282.99 429.142C286.248 428.639 310.52 428.714 313.018 429.261L313.377 430.004C311.82 431.208 309.825 431.08 308.086 431.877C307.154 432.304 306.657 433.051 306.261 433.977C304.849 437.271 305.196 482.206 305.71 488.85C305.839 490.527 306.099 492.28 306.85 493.805C307.75 495.631 309.568 496.789 311.438 497.439C316.509 499.2 324.416 498.794 329.208 496.46C334.073 494.089 333.655 491.213 335.123 486.62L336.145 486.59C336.998 487.714 336.707 489.44 336.697 490.793C336.587 494.982 335.998 498.85 335.106 502.938C325.721 503.203 316.26 502.986 306.867 502.987C298.539 502.987 290.049 503.326 281.755 502.534C283.982 501.613 286.471 501.365 288.609 500.218C289.925 499.512 290.425 498.675 290.794 497.288C292.541 490.722 292.522 445.144 291.829 437.225C291.71 435.862 291.603 434.358 290.772 433.206C289.755 431.798 288.257 431.563 286.67 431.301C285.518 431.111 284.553 430.948 283.461 430.5L282.99 429.142Z" data-index="40" style="visibility: visible; opacity: 1;"></path>
	<path fill="#BA9858" transform="scale(1.02734 1.02734)" d="M511.786 304.312C520.185 311.476 527.36 320.103 535.277 327.789C528.462 336.928 519.457 345.193 511.604 353.474C503.95 344.944 494.539 337.134 487.84 327.884C495.827 320.07 503.494 311.793 511.786 304.312Z" data-index="41" style="visibility: visible; opacity: 1;"></path>
	<path fill="#19283A" transform="scale(1.02734 1.02734)" d="M595.309 539.272C598.839 542.081 612.24 570.579 615.73 576.843C618.746 570.175 622.216 563.679 625.451 557.113C628.358 551.213 631.07 544.276 635.072 539.054C637.963 549.707 638.745 577.546 642.067 584.118C643.284 586.527 646.938 587.104 649.292 587.829C643.844 587.932 637.716 588.66 632.538 586.765C632.762 586.587 633.012 586.439 633.209 586.231C633.424 586.004 633.679 585.775 633.761 585.474C634.116 584.171 631.563 566.533 631.372 563.378C631.083 560.565 630.982 557.708 630.806 554.884C627.538 560.415 616.19 585.716 613.729 587.597C610.636 586.078 598.649 560.696 596.606 556.095C596.447 561.446 593.578 581.488 595.06 585.229C595.836 586.042 596.28 586.324 597.364 586.526C598.224 586.685 598.395 586.712 599.202 587.181C597.096 588.665 584.67 587.867 581.656 587.736C583.959 587.098 586.303 586.584 588.627 586.031C591.418 577.143 592.333 559.699 593.515 549.819C593.916 546.467 594.002 542.375 595.309 539.272Z" data-index="42" style="visibility: visible; opacity: 1;"></path>
	<path fill="#19283A" transform="scale(1.02734 1.02734)" d="M551.33 540.769C558.085 540.457 564.906 540.571 571.671 540.513Q568.055 541.66 564.514 543.021C563.606 554.222 566.932 574.278 559.245 582.846C555.619 586.888 550.557 588.459 545.258 588.583C539.832 588.71 533.939 587.336 529.992 583.409C522.241 575.697 524.54 553.977 524.45 543.497C522.192 542.591 519.812 541.854 517.514 541.045Q527.091 540.788 536.672 540.744C537.285 540.763 536.972 540.669 537.553 541.175C535.816 541.832 534.334 542.327 533.213 543.89C530.796 547.26 531.706 569.997 532.831 574.726C533.712 578.43 535.638 581.921 539.061 583.817C542.094 585.496 546.799 585.883 550.069 584.733C553.302 583.597 555.684 580.707 557.017 577.642C559.251 572.504 559.749 548.61 557.727 543.276C556.077 541.802 553.429 541.371 551.33 540.769Z" data-index="43" style="visibility: visible; opacity: 1;"></path>
	<path fill="#19283A" transform="scale(1.02734 1.02734)" d="M417.255 541.234C425.984 541.285 440.302 539.545 447.584 544.54C449.868 546.107 451.554 548.293 451.995 551.07C452.493 554.21 451.287 557.915 449.386 560.42C446.927 563.662 441.055 565.773 437.083 566.195C435.922 566.319 435.185 566.326 434.228 565.612L434.211 564.797C436.591 564.009 439.316 563.52 441.261 561.844C443.118 560.243 444.624 557.698 444.711 555.208C444.806 552.461 443.316 549.819 441.369 547.971C437.821 544.603 434.96 544.356 430.325 544.416C430.362 557.967 429.721 571.916 430.692 585.406Q434.008 586.775 437.378 588.004C431.368 587.962 424.753 588.737 418.844 587.78L418.769 587.285C420.023 586.911 420.747 586.503 421.77 585.688C423.774 582.084 423.02 548.792 422.06 543.368C420.627 542.877 419.199 542.475 417.731 542.101L417.255 541.234Z" data-index="44" style="visibility: visible; opacity: 1;"></path>
	<path fill="#19283A" transform="scale(1.02734 1.02734)" d="M485.508 540.596C489.916 540.362 493.238 540.875 497.357 542.467C497.794 545.228 497.818 547.98 497.871 550.767Q496.828 549.158 495.662 547.636C493.842 545.291 491.261 543.615 488.215 543.385C485.686 543.193 483.278 543.66 481.42 545.469C480.071 546.783 479.153 548.663 479.284 550.574C479.66 556.061 490.162 561.668 494.131 565.057C497.102 567.592 499.95 570.882 500.109 574.976C500.229 578.054 498.735 581.436 496.655 583.664C493.314 587.243 488.457 588.413 483.743 588.621C483.524 588.614 483.304 588.61 483.085 588.601C480.279 588.481 475.659 588.037 473.825 585.666C471.592 582.777 472.753 578.303 473.141 574.987C474.996 578.767 476.492 582.034 480.321 584.23C482.592 585.532 485.26 585.572 487.725 584.828C489.673 584.24 491.428 583.191 492.328 581.297C497.245 570.946 476.266 564.208 473.362 555.059C472.58 552.596 473.033 550.142 474.322 547.94C477.092 543.204 480.494 541.94 485.508 540.596Z" data-index="45" style="visibility: visible; opacity: 1;"></path>
	<path fill="#19283A" transform="scale(1.02734 1.02734)" d="M391.345 541.246C392.056 541.154 392.725 541.231 393.438 541.277C393.224 542.443 391.01 542.862 390.385 544.132C388.291 548.387 388.32 580.375 390.131 585.358C391.775 586.765 394.197 587.245 396.237 587.882C391.306 588.172 386.314 587.99 381.375 587.96C379.935 587.994 378.706 587.926 377.285 587.692L377.073 587.097C378.041 586.676 378.966 586.202 379.901 585.713C380.693 584.384 380.927 583.082 381.004 581.552C381.249 576.7 381.525 547.192 380.52 544.721C379.819 542.995 378.499 543.017 377.345 541.721L378.413 541.695L378.214 541.064L378.513 541.661Q384.927 541.402 391.345 541.246Z" data-index="46" style="visibility: visible; opacity: 1;"></path>
</svg>